<?xml version="1.0" encoding="utf-8"?>
<!-- Generator: Adobe Illustrator 26.5.0, SVG Export Plug-In . SVG Version: 6.00 Build 0)  -->
<svg version="1.1" id="Ebene_1" xmlns="http://www.w3.org/2000/svg" xmlns:xlink="http://www.w3.org/1999/xlink" x="0px" y="0px"
	 viewBox="0 0 303 1143" style="enable-background:new 0 0 303 1143;" width="720px" xml:space="preserve">
<path d="M235.1,68.4c6.5,0,12.1,2.3,16.7,6.9c4.6,4.6,6.9,10.2,6.9,16.9c0,6.5-2.3,12-6.9,16.6c-4.6,4.6-10.2,6.9-16.7,6.9
	c-6.7,0-12.3-2.3-16.9-6.9c-4.6-4.6-6.9-10.1-6.9-16.6c0-6.7,2.3-12.3,6.9-16.9C222.8,70.7,228.4,68.4,235.1,68.4 M227.8,205.7
	c0-5.1-1-10.1-3-14.7c-1.9-4.5-4.7-8.6-8.1-12c-3.4-3.4-7.5-6.2-11.9-8.1c-4.5-2-9.4-3-14.6-3c-5.2,0-10.2,1-14.8,3
	c-4.5,1.9-8.6,4.7-12.1,8.1c-3.4,3.5-6.2,7.5-8.1,12c-2,4.7-3,9.7-3,14.7c0,5.2,1,10.1,3,14.6c3.9,9,11.1,16.2,20.2,20
	c4.7,2,9.7,3,14.8,3c5.2,0,10.1-1,14.6-3c9-3.9,16.1-11,20-20C226.8,215.8,227.8,210.9,227.8,205.7 M40.3,128.6h214.5v32.4h-10.6
	c5.2,6.2,9.2,13.2,11.9,20.8c2.7,7.6,4.1,15.7,4.1,23.8c0,9.4-1.8,18.3-5.3,26.8c-3.5,8.5-8.7,16.2-15.3,22.7
	c-6.5,6.5-14.2,11.7-22.8,15.3c-8.5,3.5-17.6,5.3-26.8,5.3c-9.6,0-18.6-1.8-27.1-5.3c-8.5-3.5-16.3-8.7-22.8-15.3
	c-6.6-6.5-11.8-14.2-15.3-22.7c-3.5-8.5-5.3-17.6-5.3-26.8c0-8.3,1.4-16.2,4.1-23.8c2.7-7.6,6.8-14.6,11.9-20.8H40.3L40.3,128.6z
	 M175.2,387.8v-77.1c-7.8,3.1-14.1,8.1-19.1,15c-5,6.9-7.4,14.8-7.4,23.7c0,8.6,2.5,16.4,7.4,23.4
	C161.1,379.8,167.5,384.8,175.2,387.8 M251.3,313.2c6.5,11.2,9.8,23.3,9.8,36.2c0,9.6-1.8,18.6-5.3,27.2
	c-3.5,8.6-8.7,16.2-15.6,22.8c-6.7,6.9-14.3,12-22.9,15.5c-8.6,3.5-17.7,5.3-27.2,5.3c-9.8,0-18.9-1.8-27.4-5.3
	c-8.5-3.5-16.2-8.7-23-15.5c-6.9-6.7-12.1-14.3-15.6-22.8c-3.5-8.6-5.3-17.6-5.3-27.2c0-9.7,1.9-18.9,5.6-27.6
	c3.6-8.5,8.8-16.2,15.3-22.7c6.5-6.5,14.3-11.7,22.8-15.3c8.7-3.7,17.9-5.5,27.6-5.5H205v109.5c7.8-3.1,14.1-8.1,19-15
	c4.9-6.9,7.3-14.7,7.3-23.4c0-7.6-1.8-14.5-5.6-20.8c-3.6-6.2-8.8-11.5-15-15.1l14.9-25.7C236.2,294,245,302.7,251.3,313.2
	 M143,413.4v31.9h111.6v32.4H143v21.9h-32.5v-21.9H40.3v-32.4h70.2v-31.9H143z M259.7,550.7c0,9.4-1.7,18.3-5.1,26.8
	c-3.4,8.5-8.5,16-15.2,22.7c-6.6,6.4-14.3,11.5-22.8,15c-8.5,3.5-17.6,5.3-26.8,5.3c-9.4,0-18.3-1.8-26.8-5.3
	c-8.5-3.5-16.2-8.6-22.8-15c-6.7-6.7-11.7-14.2-15.2-22.7c-3.4-8.5-5.2-17.6-5.1-26.8c0-9.2,1.7-18.3,5.1-26.8
	c3.4-8.5,8.5-16,15.2-22.7l23,23c-7.2,7.2-10.8,16-10.8,26.5c0,5.2,1,10.1,3,14.6c1.9,4.4,4.6,8.4,8,11.8c3.4,3.4,7.5,6.1,11.9,8
	c4.6,2,9.5,3,14.5,3c5.2,0,10.1-1,14.6-3c4.4-1.9,8.4-4.6,11.8-8c3.4-3.4,6.1-7.4,8-11.8c2-4.5,3-9.4,3-14.6
	c0-10.5-3.6-19.3-10.8-26.5l23-23c6.7,6.7,11.7,14.2,15.2,22.7C258,532.4,259.8,541.5,259.7,550.7 M175.2,732.7v-77.1
	c-7.8,3.1-14.1,8.1-19.1,15c-5,6.9-7.4,14.8-7.4,23.7c0,8.7,2.5,16.5,7.4,23.4C161.1,724.6,167.5,729.6,175.2,732.7 M251.3,658.1
	c6.4,11,9.8,23.5,9.8,36.2c0,9.6-1.8,18.6-5.3,27.2c-3.5,8.6-8.7,16.2-15.6,22.8c-6.7,6.9-14.3,12-22.9,15.5
	c-8.6,3.5-17.7,5.3-27.2,5.3c-9.8,0-18.9-1.8-27.4-5.3c-8.5-3.5-16.2-8.7-23-15.5c-6.9-6.7-12.1-14.3-15.6-22.8
	c-3.5-8.6-5.3-17.6-5.3-27.2c0-9.7,1.9-18.9,5.6-27.6c3.6-8.5,8.8-16.2,15.3-22.7c6.5-6.5,14.3-11.7,22.8-15.3
	c8.7-3.7,17.9-5.5,27.6-5.5H205v109.5c7.8-3.1,14.1-8.1,19-15c4.9-6.9,7.3-14.7,7.3-23.4c0-7.6-1.8-14.5-5.6-20.8
	c-3.6-6.2-8.8-11.5-15-15.1l14.9-25.7C236.2,638.9,245,647.6,251.3,658.1 M40.3,808.4v-32.4h214.5v32.4H40.3z M175.2,928v-77.1
	c-7.8,3.1-14.1,8.1-19.1,15c-5,6.9-7.4,14.8-7.4,23.7c0,8.6,2.5,16.4,7.4,23.4C161.1,919.9,167.5,924.9,175.2,928 M251.3,853.4
	c6.5,11.2,9.8,23.3,9.8,36.2c0,9.6-1.8,18.6-5.3,27.2c-3.5,8.6-8.7,16.2-15.6,22.8c-6.7,6.9-14.3,12-22.9,15.5
	c-8.6,3.5-17.6,5.3-27.2,5.3c-9.8,0-18.9-1.8-27.4-5.3c-8.5-3.5-16.2-8.7-23-15.5c-6.9-6.7-12.1-14.3-15.6-22.8
	c-3.5-8.6-5.3-17.6-5.3-27.2c0-9.7,1.9-18.9,5.6-27.6c3.6-8.5,8.8-16.2,15.3-22.7c6.5-6.5,14.3-11.7,22.8-15.3
	c8.7-3.7,17.9-5.5,27.6-5.5H205V928c7.8-3.1,14.1-8.1,19-15c4.9-6.9,7.3-14.7,7.3-23.4c0-7.6-1.8-14.5-5.6-20.8
	c-3.6-6.2-8.8-11.5-15-15.1l14.9-25.7C236.2,834.2,245,842.9,251.3,853.4 M260.5,1020c0,1.4-0.1,2.4-0.3,3c0,4.7-0.6,9.6-1.9,14.9
	c-1.3,5.2-3.1,10.2-5.4,15c-2.3,4.7-5.2,9.1-8.7,13.1c-3.4,4-7.3,7-11.6,9.2l-14.6-28.7c0.4-0.4,1.1-1.1,2.2-2.3
	c1.1-1.2,2.3-3.2,3.8-6.1c2.5-4.9,3.8-10.4,3.8-16v-0.5l0.3-0.5c0-1.3-0.1-2.8-0.3-4.7c-0.2-1.9-0.6-3.9-1.2-5.9
	c-0.6-2.1-1.4-4.1-2.3-6.1c-0.8-1.9-1.9-3.6-3.3-5.1c-1.4-1.4-2.7-2.4-3.8-2.8c-1.1-0.4-2.1-0.7-3-0.7c-1.8-0.2-3.1-0.1-3.8,0.3
	c-0.6,0.3-1.1,0.6-1.6,1.1c-1.4,1.4-2.7,4-3.9,7.7c-1.2,3.7-1.8,9-1.8,15.8c0,2.2-0.1,5-0.4,8.6c-0.3,3.6-0.9,7.4-2,11.5
	c-1.2,4.3-2.7,8.4-4.6,12.4c-2,4.3-4.9,8.1-8.4,11.2c-7.4,7-16.4,10.3-27.1,9.7c-9.9-0.5-18.3-4-25.2-10.4
	c-6.9-6.4-11.6-15-14.1-25.8c-1.4-5.8-2.1-11.8-1.9-18c0.2-6.1,1.1-12.1,2.7-18c2-6.8,4.7-12.8,8.3-17.8c3.5-5,7.6-8.9,12.3-11.6
	l16,28.4c-0.4,0.2-1.1,1-2.2,2.4c-1.1,1.4-2.1,3.9-3,7.3c-2,6.5-2.3,13.4-0.8,20c1.3,5.2,2.9,8.4,5,9.5c2.1,1.1,3.7,1.6,4.7,1.6
	c0.9,0,1.5-0.1,1.9-0.3l1.1-0.5c1.5-1.4,2.7-4.1,3.7-8c1-4,1.5-8.2,1.5-12.3c0-9,1-17.2,3-24.6c2.7-9.6,7-17,13-22.4
	c7.9-7.7,17.9-11.2,29.8-10.3c11.2,0.9,20.9,5.8,29,14.6c5.2,6.1,9.2,13.3,11.5,21C259.3,1006.6,260.5,1013.7,260.5,1020"/>
</svg>
