<svg class="logo" xmlns="http://www.w3.org/2000/svg" width="1143px" height="303px" viewBox="0 0 381.12 101.12" xml:space="preserve"><defs><clipPath id="a" clipPathUnits="userSpaceOnUse"><path d="M0 75.84h285.84V0H0Z"/></clipPath></defs><g clip-path="url(#a)" transform="matrix(1.33333 0 0 -1.33333 0 101.12)"><path style="fill:#000;fill-opacity:1;fill-rule:nonzero;stroke:none" d="M0 0c0-1.627-.575-3.017-1.726-4.17-1.15-1.152-2.561-1.729-4.229-1.729-1.625 0-3.012.577-4.162 1.729-1.151 1.153-1.726 2.543-1.726 4.17 0 1.672.575 3.085 1.726 4.238 1.15 1.152 2.537 1.728 4.162 1.728 1.668 0 3.079-.576 4.229-1.728C-.575 3.085 0 1.672 0 0m-34.349 1.831a9.19 9.19 0 0 1 3.689.745 9.572 9.572 0 0 1 3.011 2.034 9.71 9.71 0 0 1 2.031 2.984c.495 1.129.744 2.349.744 3.661 0 1.31-.249 2.542-.744 3.695a9.613 9.613 0 0 1-2.031 3.017 9.605 9.605 0 0 1-3.011 2.034 9.207 9.207 0 0 1-3.689.746c-1.309 0-2.527-.249-3.654-.746a9.593 9.593 0 0 1-5.008-5.051 9.234 9.234 0 0 1-.744-3.695c0-1.312.247-2.532.744-3.661a9.69 9.69 0 0 1 5.008-5.018c1.127-.498 2.345-.745 3.654-.745m19.288 46.917V-4.949h-8.121v2.644a17.137 17.137 0 0 0-5.211-2.983 17.549 17.549 0 0 0-5.956-1.017c-2.346 0-4.579.44-6.699 1.322a17.388 17.388 0 0 0-5.685 3.83 17.43 17.43 0 0 0-3.824 5.696 17.362 17.362 0 0 0-1.32 6.712c0 2.395.44 4.655 1.32 6.78a17.458 17.458 0 0 0 3.824 5.695 17.406 17.406 0 0 0 5.685 3.831 17.284 17.284 0 0 0 6.699 1.322c2.075 0 4.061-.339 5.956-1.017a17.178 17.178 0 0 0 5.211-2.983v23.865Zm-64.882-33.764h19.287c-.768 1.943-2.02 3.536-3.756 4.78-1.737 1.242-3.712 1.864-5.922 1.864-2.165 0-4.117-.622-5.853-1.864-1.738-1.244-2.99-2.837-3.756-4.78m18.678-19.052c-2.798-1.627-5.82-2.441-9.069-2.441-2.391 0-4.659.441-6.801 1.322-2.143.882-4.05 2.18-5.718 3.899-1.716 1.671-3.012 3.582-3.892 5.729-.88 2.146-1.32 4.418-1.32 6.814 0 2.441.44 4.723 1.32 6.848.88 2.124 2.176 4.044 3.892 5.763 1.668 1.717 3.575 3.017 5.718 3.898 2.142.882 4.41 1.322 6.801 1.322 2.437 0 4.738-.464 6.903-1.39a17.895 17.895 0 0 0 5.685-3.83 17.944 17.944 0 0 0 3.824-5.696c.924-2.169 1.387-4.474 1.387-6.915V7.526h-27.408c.766-1.944 2.018-3.526 3.756-4.746 1.736-1.221 3.688-1.831 5.853-1.831 1.895 0 3.632.463 5.211 1.39a10.602 10.602 0 0 1 3.79 3.763l6.429-3.729a18.468 18.468 0 0 0-6.361-6.441m-25.085 27.12h-7.986V-4.882h-8.121v27.934h-5.482v8.136h5.482v17.56h8.121v-17.56h7.986zM-120.712-6.17c-2.347 0-4.58.43-6.7 1.288-2.121.858-4.016 2.124-5.685 3.797a17.985 17.985 0 0 0-3.756 5.695 17.384 17.384 0 0 0-1.319 6.713c0 2.349.44 4.587 1.319 6.712a18.007 18.007 0 0 0 3.756 5.695c1.669 1.672 3.564 2.938 5.685 3.797a17.69 17.69 0 0 0 6.7 1.288 17.7 17.7 0 0 0 6.7-1.288c2.12-.859 4.015-2.125 5.685-3.797l-5.753-5.763c-1.805 1.807-4.016 2.712-6.632 2.712-1.309 0-2.527-.249-3.655-.746a9.57 9.57 0 0 1-2.943-2 9.456 9.456 0 0 1-1.997-2.983 9.066 9.066 0 0 1-.744-3.627c0-1.312.247-2.532.744-3.662a9.555 9.555 0 0 1 1.997-2.949 9.536 9.536 0 0 1 2.943-2c1.128-.498 2.346-.746 3.655-.746 2.616 0 4.827.904 6.632 2.712l5.753-5.763c-1.67-1.673-3.565-2.939-5.685-3.797a17.7 17.7 0 0 0-6.7-1.288m-45.551 21.154h19.287c-.767 1.943-2.02 3.536-3.756 4.78-1.737 1.242-3.711 1.864-5.921 1.864-2.166 0-4.118-.622-5.854-1.864-1.738-1.244-2.99-2.837-3.756-4.78m18.678-19.052a17.73 17.73 0 0 0-9.068-2.441c-2.392 0-4.659.441-6.802 1.322-2.143.882-4.05 2.18-5.718 3.899-1.716 1.671-3.012 3.582-3.892 5.729-.879 2.146-1.319 4.418-1.319 6.814 0 2.441.44 4.723 1.319 6.848.88 2.124 2.176 4.044 3.892 5.763 1.668 1.717 3.575 3.017 5.718 3.898 2.143.882 4.41 1.322 6.802 1.322 2.436 0 4.737-.464 6.902-1.39a17.895 17.895 0 0 0 5.685-3.83 17.944 17.944 0 0 0 3.824-5.696c.924-2.169 1.387-4.474 1.387-6.915V7.526h-27.408c.766-1.944 2.018-3.526 3.756-4.746 1.736-1.221 3.688-1.831 5.854-1.831 1.895 0 3.631.463 5.211 1.39a10.607 10.607 0 0 1 3.789 3.763l6.43-3.729a18.479 18.479 0 0 0-6.362-6.441m-37.614 52.816h8.121V-4.95h-8.121zm-29.944-33.764h19.287c-.768 1.943-2.02 3.536-3.756 4.78-1.737 1.242-3.712 1.864-5.922 1.864-2.165 0-4.117-.622-5.853-1.864-1.738-1.244-2.99-2.837-3.756-4.78m18.678-19.052c-2.798-1.627-5.82-2.441-9.069-2.441-2.391 0-4.659.441-6.801 1.322-2.143.882-4.05 2.18-5.719 3.899-1.715 1.671-3.011 3.582-3.891 5.729-.88 2.146-1.32 4.417-1.32 6.814 0 2.441.44 4.723 1.32 6.848.88 2.124 2.176 4.044 3.891 5.763 1.669 1.717 3.576 3.017 5.719 3.898 2.142.882 4.41 1.322 6.801 1.322 2.437 0 4.738-.464 6.903-1.39a17.895 17.895 0 0 0 5.685-3.83 17.944 17.944 0 0 0 3.824-5.696c.924-2.169 1.387-4.474 1.387-6.915V7.526h-27.408c.766-1.944 2.018-3.526 3.756-4.746 1.736-1.221 3.688-1.831 5.853-1.831 1.895 0 3.632.463 5.211 1.39a10.602 10.602 0 0 1 3.79 3.763l6.429-3.729a18.468 18.468 0 0 0-6.361-6.441m-41.712-2.305c-.362 0-.61.023-.745.068-1.174 0-2.414.158-3.722.474a18.217 18.217 0 0 0-3.756 1.356 15.267 15.267 0 0 0-3.282 2.17c-.993.858-1.76 1.83-2.301 2.915l7.173 3.661c.09-.091.282-.271.576-.542.293-.271.8-.588 1.522-.949a8.783 8.783 0 0 1 3.993-.949h.136l.135-.068c.315 0 .71.022 1.184.068.474.044.97.146 1.489.305.518.158 1.026.349 1.523.576a5.22 5.22 0 0 1 1.286.814c.36.361.597.678.71.949.112.271.169.519.169.746.045.451.023.768-.067.949a1.65 1.65 0 0 1-.271.407c-.362.361-1.005.688-1.929.983-.925.293-2.245.44-3.959.44-.541 0-1.263.034-2.165.102-.903.068-1.861.237-2.877.509a18.64 18.64 0 0 0-3.113 1.152 8.718 8.718 0 0 0-2.808 2.102c-1.76 1.853-2.572 4.112-2.437 6.78.136 2.485 1.004 4.587 2.606 6.305 1.601 1.718 3.756 2.893 6.463 3.526 1.443.361 2.944.519 4.5.475a18.6 18.6 0 0 0 4.501-.678c1.714-.498 3.203-1.187 4.466-2.068 1.263-.882 2.234-1.91 2.91-3.085l-7.105-4c-.046.09-.249.271-.61.542s-.97.519-1.827.746a9.928 9.928 0 0 1-5.008.203c-1.309-.317-2.098-.735-2.368-1.254-.271-.52-.406-.915-.406-1.187 0-.226.022-.384.067-.474l.136-.271c.36-.363 1.025-.668 1.996-.916a12.34 12.34 0 0 1 3.079-.373c2.256 0 4.308-.249 6.159-.745 2.391-.678 4.263-1.763 5.617-3.255 1.939-1.989 2.797-4.475 2.571-7.458-.226-2.803-1.444-5.22-3.654-7.254a14.68 14.68 0 0 0-5.245-2.882c-1.962-.61-3.734-.915-5.312-.915" transform="translate(268.836 17)"/></g></svg>